<?xml version="1.0" encoding="utf-8"?>
<!-- Generator: Adobe Illustrator 22.0.1, SVG Export Plug-In . SVG Version: 6.00 Build 0)  -->
<svg version="1.1" id="Capa_1" xmlns="http://www.w3.org/2000/svg" xmlns:xlink="http://www.w3.org/1999/xlink" x="0px" y="0px"
	 viewBox="0 0 478.2 478.2" style="enable-background:new 0 0 478.2 478.2;" xml:space="preserve">
<g>
	<g id="Layer_8_4_">
		<path d="M124.8,209.6v14.8h213.4v-14.8h55.2v14.8h36.4c24.1,0,44.2-17.4,48.3-40.3V96.4H318.8V57.9c0-5-4.1-9.1-9.1-9.1H169.5
			c-5,0-9.1,4.1-9.1,9.1v38.5H0v95.4c6.8,18.9,24.9,32.5,46.2,32.5h23.4v-14.8L124.8,209.6L124.8,209.6z M178.6,67h122.1v29.5H178.6
			V67z M393.4,274.6v-38.1h36.4c19.6,0,37.1-9.3,48.3-23.7v216.6H0v-214c11.2,12.9,27.8,21.2,46.2,21.2h23.4v38.1h55.2v-38.1h213.4
			v38.1H393.4z"/>
	</g>
</g>
</svg>
