<?xml version="1.0" encoding="utf-8"?>
<!-- Generator: Adobe Illustrator 22.0.1, SVG Export Plug-In . SVG Version: 6.00 Build 0)  -->
<svg version="1.1" id="レイヤー_1" xmlns="http://www.w3.org/2000/svg" xmlns:xlink="http://www.w3.org/1999/xlink" x="0px"
	 y="0px" viewBox="0 0 1000 1000" style="enable-background:new 0 0 1000 1000;" xml:space="preserve">
<g>
	<g>
		<path d="M540.5,302.1c-18-27.5-34.9-53.9-61.1-72.6C328.7,122,87.6,180.8,24.7,328.8C-26.4,449.2,64.6,608.2,162.3,623
			c5.1,39.5,10.2,79,15.3,118.4c36.5-18.6,82.9-76.4,114.6-87.9c37.3-13.4,79.9-5.2,114.6-19.1C522.5,588.2,636.8,449.2,540.5,302.1
			z M357.1,504.6c-8.7,9-14.3-14.8-30.6-11.5c-55,11.1-64.9,5.6-103.2-19.1c-8.5-30.2-26.5-120.7,0-149c8-22.7,28.7-21.6,45.8-34.4
			c78-2.4,99.3,26.2,99.3,103.2c0,29.3,2.9,58-11.5,72.6c6.4,6.4,12.7,12.7,19.1,19.1L357.1,504.6z M960.8,409.1
			C909,324.6,818,280.6,678.1,283c-21.8,14.2-56.7,8.2-76.4,22.9c-2.1,3.2,29.2,102.8,19.1,145.2c-17.8,74.8-60.8,165-129.9,187.2
			v3.8c41,39.1,80,71.9,141.4,91.7c24.7,8,52.7-2,80.2,7.6c35.7,28,71.3,56,107,84.1c10.8-6.8,19.7-85.1,19.1-107
			C934.4,674.4,1043.4,543.7,960.8,409.1z M834.7,615.4c-43.9,2.4-51.4-7.7-57.3-42H701c-2.9,17.6-9.2,23.8-11.5,42h-42
			c9.6-56.9,53.4-141.8,76.4-194.9c65.7-0.7,75.7,149.3,110.8,191V615.4z M288.3,325c-4.5,3.1-6.4,3.1-15.3,3.8
			c-4.3,4.5-9.7,8.2-15.3,11.5c-5.7,26.2-15.9,79.4,0,103.2c5.4,14.7,13.2,13.8,22.9,22.9c8.9-0.9,10.8-0.8,15.3-3.8h7.6
			c-5.1-5.1-10.2-10.2-15.3-15.3c4.1-11.8,9.3-13.8,15.3-22.9c10.1,3.6,9.9,3.8,15.3,11.5h7.6c1.1-31.2,9.5-73.5-7.6-95.5
			C311.5,331,300.7,329.2,288.3,325z M716.3,542.8h49.7c-8.8-18.3-20.1-38.5-22.9-61.1C729.7,489,718.1,525.1,716.3,542.8z"/>
	</g>
</g>
</svg>
