<?xml version="1.0" encoding="utf-8"?>
<!-- Generator: Adobe Illustrator 22.0.1, SVG Export Plug-In . SVG Version: 6.00 Build 0)  -->
<svg version="1.1" id="レイヤー_1" xmlns="http://www.w3.org/2000/svg" xmlns:xlink="http://www.w3.org/1999/xlink" x="0px"
	 y="0px" viewBox="0 0 1000 1000" style="enable-background:new 0 0 1000 1000;" xml:space="preserve">
<g>
	<g>
		<path d="M580.1,18.2c-33.4-10.1-73.7-8.3-114.7-7.6c-18.9,11.9-50.8,8-72.7,15.3c-47.2,15.7-110,51.3-137.7,88
			c-30.1,39.8-59.4,81.1-76.5,133.9C110.5,458.1,285,623.5,362.1,733.4c41.6,59.2,74.6,127.6,107.1,195.1
			c6.2,13,14.3,65.9,34.4,61.2c10.1-2.4,24.9-59.5,30.6-72.7c22.5-51.7,53.1-110,84.1-156.8c69.4-104.7,159.7-188.7,202.7-321.3
			C889.2,229,723.8,61.8,580.1,18.2z M526.6,469.5c-86.6,22.6-176.7-69.5-153-156.8c17-62.6,53.5-64.5,99.4-95.6
			C659.8,212.2,672.7,431.5,526.6,469.5z"/>
	</g>
</g>
</svg>
