<?xml version="1.0" encoding="utf-8"?>
<!-- Generator: Adobe Illustrator 22.0.1, SVG Export Plug-In . SVG Version: 6.00 Build 0)  -->
<svg version="1.1" id="レイヤー_1" xmlns="http://www.w3.org/2000/svg" xmlns:xlink="http://www.w3.org/1999/xlink" x="0px"
	 y="0px" viewBox="0 0 1000 1000" style="enable-background:new 0 0 1000 1000;" xml:space="preserve">
<g>
	<path d="M1000,789.6c-6.5,20.4-24.6,20.5-41.1,23.2c-71.6,11.7-143.2,23.3-214.7,34.9c-14.3,2.3-27-6.6-29.4-21.9
		C706,771.2,697.6,716.6,689,662c-3.6-22.8-7-45.6-10.9-68.4c-2.8-16.7,5-29.2,20.5-31.9c13.3-2.3,25.1,7.1,27.6,22.6
		c9.2,57.5,18.3,115,27.4,172.4c0.1,0.9,0.5,1.8,4.2,5.9c1.1-2.6,1.6-5.7,3.3-7.9c50.4-62.4,80.2-133.2,88.5-213.1
		C870.8,338.2,736.5,151.3,537,106.9C378.5,71.7,211.9,135.6,121,269c-37.5,55-61.2,116.5-68.4,183.6
		c-10.2,94.7,9.4,182.2,59.7,263.2c61.6,99.2,151.2,157.3,264.7,179.4c22.9,4.5,46.5,5.2,69.9,7.1c15.3,1.2,24.6,7.4,26.8,19.3
		c2.5,13.7-3.1,22.7-18.2,29.1c-0.5,0.2-0.9,0.9-1.3,1.4c-6.5,0-13,0-19.6,0c-4.5-0.6-9-1.2-13.4-1.8c-19.4-2.4-39-3.6-58-7.5
		c-100.7-20.6-185.9-67.9-252.7-147.4C54.3,728.6,18.6,653,5.8,566.9C3.3,550.5,1.9,534,0,517.6c0-11.7,0-23.5,0-35.2
		c0.6-4.1,1.3-8.2,1.8-12.4c2.3-18.4,3.5-36.9,6.9-55.1c15.6-84.6,53.8-158.7,111-222c70-77.4,158.3-123.1,261.6-139
		c17-2.6,34.1-4,51.2-6c11.1,0,22.2,0,33.3,0c3.2,0.5,6.4,1.2,9.6,1.6c21.3,2.7,42.8,4.1,63.8,8.2
		c226.6,43.9,384.1,258.6,359.5,488.7c-9.3,86.7-40.6,164.2-94.4,232.8c-2.1,2.6-3.8,5.5-6.5,9.4c5.9-0.7,10-1.1,14.2-1.8
		c50.4-8.2,100.7-16.6,151.1-24.5c21.7-3.4,26.3-0.9,36.9,17.5C1000,783.1,1000,786.4,1000,789.6z"/>
</g>
</svg>
