<?xml version="1.0" encoding="utf-8"?>
<!-- Generator: Adobe Illustrator 22.0.1, SVG Export Plug-In . SVG Version: 6.00 Build 0)  -->
<svg version="1.1" id="レイヤー_1" xmlns="http://www.w3.org/2000/svg" xmlns:xlink="http://www.w3.org/1999/xlink" x="0px"
	 y="0px" viewBox="0 0 1000 1000" style="enable-background:new 0 0 1000 1000;" xml:space="preserve">
<g>
	<g>
		<path d="M975,307c-4.6-20-12.7-37.1-21-59.2C913.4,139.5,796.2,57.4,699.7,29.9c-150.2-42.9-333.4,4.7-429.2,128.3
			c-69.8,90-101.4,197.7-88.7,307.5c2,17.4,25.7,156.7,55.4,156.7c8.3,17.4-181.7,177.8-202.6,202.6c-37.5,44.5-15.1,88.6,0,133.8
			c21.9,6,38.2,28.9,61,31.2c33.1,3.5,57-9.8,80.5-27.9c25.1-19.4,183-206,202.6-198.3c0,12.2,68.3,32.6,82.6,37.3
			c62.4,20.6,140.5,28.6,200.2,16.2c86.4-17.9,157.8-58.9,214.1-114.7c55-54.6,93-135.3,109-221.6C995.2,423.3,986.7,357.6,975,307z
			 M835.2,428.6C829.6,645.5,523.3,751,386.3,565c-59.8-81.3-60.6-184.4-21-267.6c18.7-39.3,58.3-78.3,97.5-99.4
			c7.8-4.2,91.7-31,91.7-30.6C706.8,166.4,839.6,261.9,835.2,428.6z"/>
	</g>
</g>
</svg>
